<!-- icon666.com - MILLIONS vector ICONS FREE --><svg viewBox="0 0 32 32" xmlns="http://www.w3.org/2000/svg"><g id="Layer_22" data-name="Layer 22"><path d="m25.9 6.1a14 14 0 1 0 0 19.8 14 14 0 0 0 0-19.8zm-4.9 13.44a1 1 0 0 1 0 1.46 1 1 0 0 1 -.71.29 1 1 0 0 1 -.7-.29l-3.59-3.59-3.54 3.59a1 1 0 0 1 -.7.29 1 1 0 0 1 -.71-.29 1 1 0 0 1 0-1.41l3.54-3.59-3.54-3.54a1 1 0 0 1 1.41-1.41l3.54 3.54 3.54-3.54a1 1 0 0 1 1.46 1.41l-3.59 3.54z" fill="#000000" style="fill: rgb(255, 78, 102);"></path></g></svg>