<!-- icon666.com - MILLIONS vector ICONS FREE --><svg viewBox="0 0 32 32" xmlns="http://www.w3.org/2000/svg"><g id="_23_Edit" data-name="23 Edit"><path d="m28.6 4.171-.771-.771a3.073 3.073 0 0 0 -4.242 0l-.353.353 5.014 5.014.352-.352a3 3 0 0 0 0-4.244z" fill="#000000" style="fill: rgb(156, 160, 177);"></path><path d="m21.82 5.165-2.834 2.835h-13.986a3 3 0 0 0 -3 3v16a3 3 0 0 0 3 3h16a3 3 0 0 0 3-3v-13.986l2.835-2.835zm.18 21.835a1 1 0 0 1 -1 1h-16a1 1 0 0 1 -1-1v-16a1 1 0 0 1 1-1h11.986l-6.686 6.689 5.011 5.011 6.689-6.686z" fill="#000000" style="fill: rgb(156, 160, 177);"></path><path d="m6.353 23.817a1 1 0 0 0 1.254 1.376l6.051-2.316-4.582-4.577z" fill="#000000" style="fill: rgb(156, 160, 177);"></path></g></svg>